<?xml version="1.0" encoding="UTF-8" standalone="no"?>
<!DOCTYPE svg PUBLIC "-//W3C//DTD SVG 1.1//EN"
 "http://www.w3.org/Graphics/SVG/1.1/DTD/svg11.dtd">
<!-- Generated by graphviz version 2.43.0 (0)
 -->
<!-- Title: G Pages: 1 -->
<svg width="589pt" height="714pt"
 viewBox="0.00 0.00 589.29 713.98" xmlns="http://www.w3.org/2000/svg" xmlns:xlink="http://www.w3.org/1999/xlink">
<g id="graph0" class="graph" transform="scale(1 1) rotate(0) translate(4 709.98)">
<title>G</title><style>.edge>path:hover{stroke-width:8}</style>
<polygon fill="white" stroke="transparent" points="-4,4 -4,-709.98 585.29,-709.98 585.29,4 -4,4"/>
<!-- Crypto -->
<g id="node1" class="node">
<title>Crypto</title><style>.edge>path:hover{stroke-width:8}</style>
<ellipse fill="#ce3b3b" stroke="black" cx="28.84" cy="-594" rx="28.69" ry="18"/>
<text text-anchor="middle" x="28.84" y="-591.5" font-family="Helvetica,sans-Serif" font-size="10.00" fill="#ffffff">Crypto</text>
</g>
<!-- mpt_constants -->
<g id="node7" class="node">
<title>mpt_constants</title><style>.edge>path:hover{stroke-width:8}</style>
<ellipse fill="#0bd6d6" stroke="black" cx="156.84" cy="-450" rx="50.75" ry="18"/>
<text text-anchor="middle" x="156.84" y="-447.5" font-family="Helvetica,sans-Serif" font-size="10.00" fill="#000000">mpt.constants</text>
</g>
<!-- Crypto&#45;&gt;mpt_constants -->
<g id="edge1" class="edge">
<title>Crypto&#45;&gt;mpt_constants</title><style>.edge>path:hover{stroke-width:8}</style>
<path fill="none" stroke="black" d="M51.63,-582.71C87.58,-566.17 153.75,-534.36 156.84,-523"/>
<path fill="none" stroke="black" d="M156.84,-521C160.58,-507.26 160.9,-491.43 160.14,-478.3"/>
<polygon fill="#ce3b3b" stroke="black" points="163.61,-477.7 159.31,-468.02 156.63,-478.27 163.61,-477.7"/>
</g>
<!-- Crypto_Hash -->
<g id="node2" class="node">
<title>Crypto_Hash</title><style>.edge>path:hover{stroke-width:8}</style>
<ellipse fill="#b83d3d" stroke="black" cx="120.84" cy="-594" rx="45.15" ry="18"/>
<text text-anchor="middle" x="120.84" y="-591.5" font-family="Helvetica,sans-Serif" font-size="10.00" fill="#ffffff">Crypto.Hash</text>
</g>
<!-- Crypto_Hash&#45;&gt;mpt_constants -->
<g id="edge2" class="edge">
<title>Crypto_Hash&#45;&gt;mpt_constants</title><style>.edge>path:hover{stroke-width:8}</style>
<path fill="none" stroke="black" d="M132,-576.28C140.48,-562.59 151.57,-542.38 156.84,-523"/>
</g>
<!-- Crypto_Hash_keccak -->
<g id="node3" class="node">
<title>Crypto_Hash_keccak</title><style>.edge>path:hover{stroke-width:8}</style>
<ellipse fill="#b34c4c" stroke="black" cx="193.84" cy="-676.99" rx="36.54" ry="28.98"/>
<text text-anchor="middle" x="193.84" y="-685.49" font-family="Helvetica,sans-Serif" font-size="10.00" fill="#ffffff">Crypto.</text>
<text text-anchor="middle" x="193.84" y="-674.49" font-family="Helvetica,sans-Serif" font-size="10.00" fill="#ffffff">Hash.</text>
<text text-anchor="middle" x="193.84" y="-663.49" font-family="Helvetica,sans-Serif" font-size="10.00" fill="#ffffff">keccak</text>
</g>
<!-- Crypto_Hash_keccak&#45;&gt;mpt_constants -->
<g id="edge3" class="edge">
<title>Crypto_Hash_keccak&#45;&gt;mpt_constants</title><style>.edge>path:hover{stroke-width:8}</style>
<path fill="none" stroke="black" d="M189.63,-648.17C186.31,-627.98 181.19,-600.09 174.84,-576 168.51,-551.94 150.31,-547 156.84,-523"/>
</g>
<!-- matplotlib -->
<g id="node4" class="node">
<title>matplotlib</title><style>.edge>path:hover{stroke-width:8}</style>
<polygon fill="blue" stroke="black" points="546.34,-468 479.34,-468 479.34,-432 546.34,-432 546.34,-468"/>
<text text-anchor="middle" x="512.84" y="-447.5" font-family="Helvetica,sans-Serif" font-size="10.00" fill="white">matplotlib</text>
</g>
<!-- mpt_visualize -->
<g id="node16" class="node">
<title>mpt_visualize</title><style>.edge>path:hover{stroke-width:8}</style>
<polygon fill="blue" stroke="black" points="428.34,-324 345.34,-324 345.34,-288 428.34,-288 428.34,-324"/>
<text text-anchor="middle" x="386.84" y="-303.5" font-family="Helvetica,sans-Serif" font-size="10.00" fill="white">mpt.visualize</text>
</g>
<!-- matplotlib&#45;&gt;mpt_visualize -->
<g id="edge4" class="edge">
<title>matplotlib&#45;&gt;mpt_visualize</title><style>.edge>path:hover{stroke-width:8}</style>
<path fill="none" stroke="black" d="M479.26,-435.32C447.53,-422.09 404.04,-403.05 398.84,-396 385.88,-378.39 383.52,-353.36 384.03,-334.33"/>
<polygon fill="blue" stroke="black" points="387.54,-334.37 384.59,-324.19 380.55,-333.98 387.54,-334.37"/>
</g>
<!-- matplotlib_pyplot -->
<g id="node5" class="node">
<title>matplotlib_pyplot</title><style>.edge>path:hover{stroke-width:8}</style>
<polygon fill="blue" stroke="black" points="578.84,-540 508.84,-540 508.84,-504 578.84,-504 578.84,-540"/>
<text text-anchor="middle" x="543.84" y="-525" font-family="Helvetica,sans-Serif" font-size="10.00" fill="white">matplotlib.</text>
<text text-anchor="middle" x="543.84" y="-514" font-family="Helvetica,sans-Serif" font-size="10.00" fill="white">pyplot</text>
</g>
<!-- matplotlib_pyplot&#45;&gt;matplotlib -->
<g id="edge5" class="edge">
<title>matplotlib_pyplot&#45;&gt;matplotlib</title><style>.edge>path:hover{stroke-width:8}</style>
<path fill="none" stroke="black" d="M536.18,-503.7C532.65,-495.73 528.39,-486.1 524.48,-477.26"/>
<polygon fill="blue" stroke="black" points="527.67,-475.83 520.42,-468.1 521.27,-478.67 527.67,-475.83"/>
</g>
<!-- matplotlib_pyplot&#45;&gt;mpt_visualize -->
<g id="edge6" class="edge">
<title>matplotlib_pyplot&#45;&gt;mpt_visualize</title><style>.edge>path:hover{stroke-width:8}</style>
<path fill="none" stroke="black" d="M552.57,-503.72C560.88,-484.57 570.18,-453.55 555.84,-432 532.89,-397.5 503.85,-419.68 469.84,-396 444.47,-378.33 420.98,-351.78 405.52,-332.27"/>
<polygon fill="blue" stroke="black" points="408.09,-329.88 399.2,-324.13 402.56,-334.17 408.09,-329.88"/>
</g>
<!-- mpt -->
<g id="node6" class="node">
<title>mpt</title><style>.edge>path:hover{stroke-width:8}</style>
<polygon fill="blue" stroke="black" points="262.84,-36 208.84,-36 208.84,0 262.84,0 262.84,-36"/>
<text text-anchor="middle" x="235.84" y="-15.5" font-family="Helvetica,sans-Serif" font-size="10.00" fill="white">mpt</text>
</g>
<!-- mpt_constants&#45;&gt;mpt -->
<g id="edge7" class="edge">
<title>mpt_constants&#45;&gt;mpt</title><style>.edge>path:hover{stroke-width:8}</style>
<path fill="none" stroke="black" d="M206.72,-446.33C312.52,-440.17 551.75,-423.33 575.84,-396 586.42,-384 578.08,-375.84 575.84,-360 567.77,-302.75 551.28,-291.67 539.84,-235"/>
</g>
<!-- mpt_ethereum -->
<g id="node8" class="node">
<title>mpt_ethereum</title><style>.edge>path:hover{stroke-width:8}</style>
<polygon fill="blue" stroke="black" points="308.84,-396 222.84,-396 222.84,-360 308.84,-360 308.84,-396"/>
<text text-anchor="middle" x="265.84" y="-375.5" font-family="Helvetica,sans-Serif" font-size="10.00" fill="white">mpt.ethereum</text>
</g>
<!-- mpt_constants&#45;&gt;mpt_ethereum -->
<g id="edge8" class="edge">
<title>mpt_constants&#45;&gt;mpt_ethereum</title><style>.edge>path:hover{stroke-width:8}</style>
<path fill="none" stroke="black" d="M180.23,-433.98C194.8,-424.63 213.82,-412.41 230.24,-401.87"/>
<polygon fill="#0bd6d6" stroke="black" points="232.52,-404.56 239.05,-396.21 228.74,-398.67 232.52,-404.56"/>
</g>
<!-- mpt_persistent -->
<g id="node12" class="node">
<title>mpt_persistent</title><style>.edge>path:hover{stroke-width:8}</style>
<polygon fill="blue" stroke="black" points="279.84,-108 191.84,-108 191.84,-72 279.84,-72 279.84,-108"/>
<text text-anchor="middle" x="235.84" y="-87.5" font-family="Helvetica,sans-Serif" font-size="10.00" fill="white">mpt.persistent</text>
</g>
<!-- mpt_constants&#45;&gt;mpt_persistent -->
<g id="edge9" class="edge">
<title>mpt_constants&#45;&gt;mpt_persistent</title><style>.edge>path:hover{stroke-width:8}</style>
<path fill="none" stroke="black" d="M149.11,-432.19C133.44,-395.88 100.88,-307.52 118.84,-235"/>
</g>
<!-- mpt_proof -->
<g id="node13" class="node">
<title>mpt_proof</title><style>.edge>path:hover{stroke-width:8}</style>
<polygon fill="blue" stroke="black" points="511.34,-324 446.34,-324 446.34,-288 511.34,-288 511.34,-324"/>
<text text-anchor="middle" x="478.84" y="-303.5" font-family="Helvetica,sans-Serif" font-size="10.00" fill="white">mpt.proof</text>
</g>
<!-- mpt_constants&#45;&gt;mpt_proof -->
<g id="edge10" class="edge">
<title>mpt_constants&#45;&gt;mpt_proof</title><style>.edge>path:hover{stroke-width:8}</style>
<path fill="none" stroke="black" d="M195.66,-438.44C228.74,-428.92 277.25,-413.71 317.84,-396 362.53,-376.5 411.17,-348.61 443.16,-329.27"/>
<polygon fill="#0bd6d6" stroke="black" points="445,-332.25 451.72,-324.06 441.36,-326.27 445,-332.25"/>
</g>
<!-- mpt_store -->
<g id="node14" class="node">
<title>mpt_store</title><style>.edge>path:hover{stroke-width:8}</style>
<polygon fill="blue" stroke="black" points="267.84,-180 203.84,-180 203.84,-144 267.84,-144 267.84,-180"/>
<text text-anchor="middle" x="235.84" y="-159.5" font-family="Helvetica,sans-Serif" font-size="10.00" fill="white">mpt.store</text>
</g>
<!-- mpt_constants&#45;&gt;mpt_store -->
<g id="edge11" class="edge">
<title>mpt_constants&#45;&gt;mpt_store</title><style>.edge>path:hover{stroke-width:8}</style>
<path fill="none" stroke="black" d="M153.86,-431.82C152.04,-417.34 151.04,-396.28 156.84,-379"/>
</g>
<!-- mpt_ethereum&#45;&gt;mpt -->
<g id="edge12" class="edge">
<title>mpt_ethereum&#45;&gt;mpt</title><style>.edge>path:hover{stroke-width:8}</style>
<path fill="none" stroke="black" d="M222.8,-365.01C197.61,-356.48 166.26,-343.11 142.84,-324 105.5,-293.52 74.64,-282.81 80.84,-235"/>
</g>
<!-- mpt_ethereum&#45;&gt;mpt_proof -->
<g id="edge13" class="edge">
<title>mpt_ethereum&#45;&gt;mpt_proof</title><style>.edge>path:hover{stroke-width:8}</style>
<path fill="none" stroke="black" d="M308.98,-364.93C341.8,-355.47 388.24,-341.51 436.59,-324.31"/>
<polygon fill="blue" stroke="black" points="438.05,-327.5 446.28,-320.83 435.68,-320.92 438.05,-327.5"/>
</g>
<!-- mpt_ethereum&#45;&gt;mpt_store -->
<g id="edge14" class="edge">
<title>mpt_ethereum&#45;&gt;mpt_store</title><style>.edge>path:hover{stroke-width:8}</style>
<path fill="none" stroke="black" d="M222.58,-364.27C196.51,-353.81 166.55,-335.89 156.84,-307"/>
</g>
<!-- mpt_trie -->
<g id="node15" class="node">
<title>mpt_trie</title><style>.edge>path:hover{stroke-width:8}</style>
<polygon fill="blue" stroke="black" points="379.84,-252 323.84,-252 323.84,-216 379.84,-216 379.84,-252"/>
<text text-anchor="middle" x="351.84" y="-231.5" font-family="Helvetica,sans-Serif" font-size="10.00" fill="white">mpt.trie</text>
</g>
<!-- mpt_ethereum&#45;&gt;mpt_trie -->
<g id="edge15" class="edge">
<title>mpt_ethereum&#45;&gt;mpt_trie</title><style>.edge>path:hover{stroke-width:8}</style>
<path fill="none" stroke="black" d="M277.88,-359.78C288.02,-345.46 303.03,-324.64 316.84,-307"/>
</g>
<!-- mpt_ethereum&#45;&gt;mpt_visualize -->
<g id="edge16" class="edge">
<title>mpt_ethereum&#45;&gt;mpt_visualize</title><style>.edge>path:hover{stroke-width:8}</style>
<path fill="none" stroke="black" d="M295.44,-359.88C311.41,-350.64 331.3,-339.13 348.45,-329.21"/>
<polygon fill="blue" stroke="black" points="350.23,-332.23 357.13,-324.19 346.72,-326.17 350.23,-332.23"/>
</g>
<!-- mpt_interfaces -->
<g id="node9" class="node">
<title>mpt_interfaces</title><style>.edge>path:hover{stroke-width:8}</style>
<ellipse fill="#2fdbdb" stroke="black" cx="236.84" cy="-306" rx="51.61" ry="18"/>
<text text-anchor="middle" x="236.84" y="-303.5" font-family="Helvetica,sans-Serif" font-size="10.00" fill="#000000">mpt.interfaces</text>
</g>
<!-- mpt_interfaces&#45;&gt;mpt -->
<g id="edge17" class="edge">
<title>mpt_interfaces&#45;&gt;mpt</title><style>.edge>path:hover{stroke-width:8}</style>
<path fill="none" stroke="black" d="M295.84,-233C295.92,-232.5 334,-91.49 333.84,-91"/>
</g>
<!-- mpt_interfaces&#45;&gt;mpt_store -->
<g id="edge18" class="edge">
<title>mpt_interfaces&#45;&gt;mpt_store</title><style>.edge>path:hover{stroke-width:8}</style>
<path fill="none" stroke="black" d="M258.93,-289.53C274.27,-276.96 292.52,-257.64 295.84,-235"/>
<path fill="none" stroke="black" d="M295.84,-233C298.53,-214.69 286.56,-198.65 272.62,-186.55"/>
<polygon fill="#2fdbdb" stroke="black" points="274.74,-183.77 264.75,-180.25 270.37,-189.23 274.74,-183.77"/>
</g>
<!-- mpt_interfaces&#45;&gt;mpt_trie -->
<g id="edge19" class="edge">
<title>mpt_interfaces&#45;&gt;mpt_trie</title><style>.edge>path:hover{stroke-width:8}</style>
<path fill="none" stroke="black" d="M261.51,-289.98C277.03,-280.54 297.33,-268.18 314.76,-257.57"/>
<polygon fill="#2fdbdb" stroke="black" points="316.85,-260.4 323.57,-252.21 313.21,-254.42 316.85,-260.4"/>
</g>
<!-- mpt_nibbles -->
<g id="node10" class="node">
<title>mpt_nibbles</title><style>.edge>path:hover{stroke-width:8}</style>
<ellipse fill="#2fdbdb" stroke="black" cx="522.84" cy="-378" rx="43.62" ry="18"/>
<text text-anchor="middle" x="522.84" y="-375.5" font-family="Helvetica,sans-Serif" font-size="10.00" fill="#000000">mpt.nibbles</text>
</g>
<!-- mpt_nibbles&#45;&gt;mpt -->
<g id="edge20" class="edge">
<title>mpt_nibbles&#45;&gt;mpt</title><style>.edge>path:hover{stroke-width:8}</style>
<path fill="none" stroke="black" d="M539.84,-305C529.39,-275.7 546,-265.5 539.84,-235"/>
</g>
<!-- mpt_nibbles&#45;&gt;mpt_proof -->
<g id="edge21" class="edge">
<title>mpt_nibbles&#45;&gt;mpt_proof</title><style>.edge>path:hover{stroke-width:8}</style>
<path fill="none" stroke="black" d="M512.42,-360.41C507.31,-352.28 501.04,-342.31 495.3,-333.18"/>
<polygon fill="#2fdbdb" stroke="black" points="498.1,-331.05 489.81,-324.45 492.17,-334.78 498.1,-331.05"/>
</g>
<!-- mpt_nibbles&#45;&gt;mpt_trie -->
<g id="edge22" class="edge">
<title>mpt_nibbles&#45;&gt;mpt_trie</title><style>.edge>path:hover{stroke-width:8}</style>
<path fill="none" stroke="black" d="M532.28,-360.31C539.13,-345.94 546.19,-324.79 539.84,-307"/>
<path fill="none" stroke="black" d="M539.84,-305C519.35,-247.55 438.9,-235.94 390.12,-234.34"/>
<polygon fill="#2fdbdb" stroke="black" points="390,-230.84 379.94,-234.14 389.86,-237.84 390,-230.84"/>
</g>
<!-- mpt_nodes -->
<g id="node11" class="node">
<title>mpt_nodes</title><style>.edge>path:hover{stroke-width:8}</style>
<ellipse fill="#10f9f9" stroke="black" cx="47.84" cy="-450" rx="40.06" ry="18"/>
<text text-anchor="middle" x="47.84" y="-447.5" font-family="Helvetica,sans-Serif" font-size="10.00" fill="#000000">mpt.nodes</text>
</g>
<!-- mpt_nodes&#45;&gt;mpt -->
<g id="edge23" class="edge">
<title>mpt_nodes&#45;&gt;mpt</title><style>.edge>path:hover{stroke-width:8}</style>
<path fill="none" stroke="black" d="M43.34,-431.79C37.04,-404.47 27.93,-349.87 42.84,-307"/>
<path fill="none" stroke="black" d="M42.84,-305C56.31,-272.26 80.97,-270.4 80.84,-235"/>
<path fill="none" stroke="black" d="M80.84,-233C80.56,-150.3 157.54,-77.95 203.11,-42.39"/>
<polygon fill="#10f9f9" stroke="black" points="205.41,-45.03 211.23,-36.18 201.16,-39.47 205.41,-45.03"/>
</g>
<!-- mpt_nodes&#45;&gt;mpt_ethereum -->
<g id="edge24" class="edge">
<title>mpt_nodes&#45;&gt;mpt_ethereum</title><style>.edge>path:hover{stroke-width:8}</style>
<path fill="none" stroke="black" d="M78.38,-438.25C84.48,-436.14 90.86,-433.98 96.84,-432 135.64,-419.19 179.7,-405.4 213.1,-395.09"/>
<polygon fill="#10f9f9" stroke="black" points="214.14,-398.44 222.66,-392.15 212.08,-391.75 214.14,-398.44"/>
</g>
<!-- mpt_nodes&#45;&gt;mpt_persistent -->
<g id="edge25" class="edge">
<title>mpt_nodes&#45;&gt;mpt_persistent</title><style>.edge>path:hover{stroke-width:8}</style>
<path fill="none" stroke="black" d="M42.84,-305C57.93,-261.63 107.33,-279.45 118.84,-235"/>
<path fill="none" stroke="black" d="M118.84,-233C131.7,-183.4 174.39,-140.2 204.47,-114.86"/>
<polygon fill="#10f9f9" stroke="black" points="207.08,-117.25 212.58,-108.19 202.64,-111.84 207.08,-117.25"/>
</g>
<!-- mpt_nodes&#45;&gt;mpt_store -->
<g id="edge26" class="edge">
<title>mpt_nodes&#45;&gt;mpt_store</title><style>.edge>path:hover{stroke-width:8}</style>
<path fill="none" stroke="black" d="M74.69,-436.61C104.96,-421.9 150.78,-397.07 156.84,-379"/>
<path fill="none" stroke="black" d="M156.84,-377C166.75,-347.51 166.75,-336.49 156.84,-307"/>
<path fill="none" stroke="black" d="M156.84,-305C142.01,-260.81 179.23,-214.51 207.5,-187.23"/>
<polygon fill="#10f9f9" stroke="black" points="209.9,-189.77 214.82,-180.39 205.12,-184.66 209.9,-189.77"/>
</g>
<!-- mpt_nodes&#45;&gt;mpt_trie -->
<g id="edge27" class="edge">
<title>mpt_nodes&#45;&gt;mpt_trie</title><style>.edge>path:hover{stroke-width:8}</style>
<path fill="none" stroke="black" d="M78,-438.05C103.43,-428.34 140.43,-413.07 170.84,-396 182.24,-389.6 183.03,-384.6 194.84,-379"/>
<path fill="none" stroke="black" d="M194.84,-377C205.08,-372.15 204.29,-366.09 213.84,-360 257.26,-332.33 285.09,-347.53 316.84,-307"/>
<path fill="none" stroke="black" d="M316.84,-305C327.09,-291.92 335.54,-275.36 341.56,-261.63"/>
<polygon fill="#10f9f9" stroke="black" points="344.87,-262.8 345.51,-252.22 338.42,-260.09 344.87,-262.8"/>
</g>
<!-- mpt_nodes&#45;&gt;mpt_visualize -->
<g id="edge28" class="edge">
<title>mpt_nodes&#45;&gt;mpt_visualize</title><style>.edge>path:hover{stroke-width:8}</style>
<path fill="none" stroke="black" d="M194.84,-377C205.08,-372.15 203.98,-365.57 213.84,-360 215.24,-359.22 284.7,-338.03 335.17,-322.69"/>
<polygon fill="#10f9f9" stroke="black" points="336.44,-325.96 344.99,-319.7 334.4,-319.26 336.44,-325.96"/>
</g>
<!-- mpt_persistent&#45;&gt;mpt -->
<g id="edge29" class="edge">
<title>mpt_persistent&#45;&gt;mpt</title><style>.edge>path:hover{stroke-width:8}</style>
<path fill="none" stroke="black" d="M235.84,-71.7C235.84,-63.98 235.84,-54.71 235.84,-46.11"/>
<polygon fill="blue" stroke="black" points="239.34,-46.1 235.84,-36.1 232.34,-46.1 239.34,-46.1"/>
</g>
<!-- mpt_proof&#45;&gt;mpt -->
<g id="edge30" class="edge">
<title>mpt_proof&#45;&gt;mpt</title><style>.edge>path:hover{stroke-width:8}</style>
<path fill="none" stroke="black" d="M508.58,-287.99C526.17,-275.44 544.24,-256.81 539.84,-235"/>
</g>
<!-- mpt_store&#45;&gt;mpt -->
<g id="edge31" class="edge">
<title>mpt_store&#45;&gt;mpt</title><style>.edge>path:hover{stroke-width:8}</style>
<path fill="none" stroke="black" d="M268.12,-146.01C298.58,-130.75 338.91,-107.11 333.84,-91"/>
<path fill="none" stroke="black" d="M333.84,-89C325.04,-61 296.43,-42.66 272.38,-31.81"/>
<polygon fill="blue" stroke="black" points="273.67,-28.55 263.1,-27.87 270.94,-35 273.67,-28.55"/>
</g>
<!-- mpt_store&#45;&gt;mpt_persistent -->
<g id="edge32" class="edge">
<title>mpt_store&#45;&gt;mpt_persistent</title><style>.edge>path:hover{stroke-width:8}</style>
<path fill="none" stroke="black" d="M235.84,-143.7C235.84,-135.98 235.84,-126.71 235.84,-118.11"/>
<polygon fill="blue" stroke="black" points="239.34,-118.1 235.84,-108.1 232.34,-118.1 239.34,-118.1"/>
</g>
<!-- mpt_trie&#45;&gt;mpt -->
<g id="edge33" class="edge">
<title>mpt_trie&#45;&gt;mpt</title><style>.edge>path:hover{stroke-width:8}</style>
<path fill="none" stroke="black" d="M333.84,-161C321.12,-132.61 343.17,-120.68 333.84,-91"/>
</g>
<!-- mpt_trie&#45;&gt;mpt_persistent -->
<g id="edge34" class="edge">
<title>mpt_trie&#45;&gt;mpt_persistent</title><style>.edge>path:hover{stroke-width:8}</style>
<path fill="none" stroke="black" d="M349.1,-215.77C346.4,-201.26 341.54,-180.18 333.84,-163"/>
<path fill="none" stroke="black" d="M333.84,-161C324.51,-140.16 305.3,-124.37 286.35,-113.1"/>
<polygon fill="blue" stroke="black" points="287.84,-109.92 277.4,-108.09 284.42,-116.03 287.84,-109.92"/>
</g>
<!-- mpt_trie&#45;&gt;mpt_store -->
<g id="edge35" class="edge">
<title>mpt_trie&#45;&gt;mpt_store</title><style>.edge>path:hover{stroke-width:8}</style>
<path fill="none" stroke="black" d="M323.76,-216.05C308.49,-206.84 289.4,-195.32 272.92,-185.37"/>
<polygon fill="blue" stroke="black" points="274.44,-182.2 264.07,-180.03 270.82,-188.19 274.44,-182.2"/>
</g>
<!-- mpt_visualize&#45;&gt;mpt -->
<g id="edge36" class="edge">
<title>mpt_visualize&#45;&gt;mpt</title><style>.edge>path:hover{stroke-width:8}</style>
<path fill="none" stroke="black" d="M428.73,-290.46C475.31,-273.66 543.6,-246.79 539.84,-235"/>
<path fill="none" stroke="black" d="M539.84,-233C506.06,-127.06 370.37,-196.03 333.84,-91"/>
</g>
<!-- mpt_visualize&#45;&gt;mpt_trie -->
<g id="edge37" class="edge">
<title>mpt_visualize&#45;&gt;mpt_trie</title><style>.edge>path:hover{stroke-width:8}</style>
<path fill="none" stroke="black" d="M378.19,-287.7C374.21,-279.73 369.39,-270.1 364.98,-261.26"/>
<polygon fill="blue" stroke="black" points="368,-259.48 360.4,-252.1 361.74,-262.61 368,-259.48"/>
</g>
<!-- rlp -->
<g id="node17" class="node">
<title>rlp</title><style>.edge>path:hover{stroke-width:8}</style>
<ellipse fill="#7f26d9" stroke="black" cx="450.84" cy="-594" rx="27" ry="18"/>
<text text-anchor="middle" x="450.84" y="-591.5" font-family="Helvetica,sans-Serif" font-size="10.00" fill="#ffffff">rlp</text>
</g>
<!-- rlp&#45;&gt;mpt_constants -->
<g id="edge38" class="edge">
<title>rlp&#45;&gt;mpt_constants</title><style>.edge>path:hover{stroke-width:8}</style>
<path fill="none" stroke="black" d="M455.56,-576.08C458.74,-560.99 460.75,-538.88 450.84,-523"/>
<path fill="none" stroke="black" d="M450.84,-521C426.23,-481.54 294.7,-463.16 216.15,-455.59"/>
<polygon fill="#7f26d9" stroke="black" points="216.19,-452.08 205.91,-454.64 215.54,-459.05 216.19,-452.08"/>
</g>
<!-- rlp&#45;&gt;mpt_ethereum -->
<g id="edge39" class="edge">
<title>rlp&#45;&gt;mpt_ethereum</title><style>.edge>path:hover{stroke-width:8}</style>
<path fill="none" stroke="black" d="M450.84,-521C434.38,-494.6 464.51,-478.95 450.84,-451"/>
<path fill="none" stroke="black" d="M450.84,-449C438.76,-424.27 369.26,-403.06 319,-390.66"/>
<polygon fill="#7f26d9" stroke="black" points="319.76,-387.25 309.22,-388.3 318.12,-394.05 319.76,-387.25"/>
</g>
<!-- rlp&#45;&gt;mpt_proof -->
<g id="edge40" class="edge">
<title>rlp&#45;&gt;mpt_proof</title><style>.edge>path:hover{stroke-width:8}</style>
<path fill="none" stroke="black" d="M450.84,-449C432.5,-411.48 449.78,-362.82 464.16,-333.3"/>
<polygon fill="#7f26d9" stroke="black" points="467.44,-334.57 468.87,-324.07 461.21,-331.39 467.44,-334.57"/>
</g>
</g>
</svg>
